<svg width="40" height="24" viewBox="0 0 40 24" fill="none" xmlns="http://www.w3.org/2000/svg">
<g clip-path="url(#clip0_515_373)">
<path d="M7.76951 23.4815H0L16.3335 0.9768C16.5426 0.688876 16.8765 0.518555 17.2305 0.518555H22.8097C23.7188 0.518555 24.2438 1.56076 23.7068 2.30085L8.66653 23.0233C8.45736 23.3112 8.12349 23.4815 7.76951 23.4815Z" fill="black"/>
<path d="M35.356 18.4449L39.4449 23.4816H30L33.5981 18.4936C34.0265 17.8995 34.8954 17.8752 35.356 18.4429V18.4449Z" fill="black"/>
<path d="M40 0.518555H32.2305C31.8765 0.518555 31.5426 0.688876 31.3335 0.9768L24.0165 11.0582C23.4795 11.7983 24.0044 12.8405 24.9135 12.8405H30.4928C30.8468 12.8405 31.1806 12.6702 31.3898 12.3822L40 0.518555Z" fill="black"/>
<path d="M3.88978 8.36145C6.03805 8.36145 7.77957 6.60575 7.77957 4.44C7.77957 2.27425 6.03805 0.518555 3.88978 0.518555C1.74152 0.518555 0 2.27425 0 4.44C0 6.60575 1.74152 8.36145 3.88978 8.36145Z" fill="black"/>
<path d="M22.2224 23.4835C24.3707 23.4835 26.1122 21.7278 26.1122 19.5621C26.1122 17.3963 24.3707 15.6406 22.2224 15.6406C20.0742 15.6406 18.3326 17.3963 18.3326 19.5621C18.3326 21.7278 20.0742 23.4835 22.2224 23.4835Z" fill="black"/>
</g>
<defs>
<clipPath id="clip0_515_373">
<rect width="40" height="22.963" fill="white" transform="translate(0 0.518555)"/>
</clipPath>
</defs>
</svg>
